<?xml version="1.0" encoding="UTF-8" standalone="no"?>
<!DOCTYPE svg PUBLIC "-//W3C//DTD SVG 1.1//EN" "http://www.w3.org/Graphics/SVG/1.1/DTD/svg11.dtd">
<svg width="100%" height="100%" viewBox="0 0 32 32" version="1.1" xmlns="http://www.w3.org/2000/svg" xmlns:xlink="http://www.w3.org/1999/xlink"
     xml:space="preserve" style="fill-rule:evenodd;clip-rule:evenodd;stroke-linejoin:round;stroke-miterlimit:2;">
    <rect id="fi-image" x="0" y="-0" width="32" height="32" style="fill:none;"/>
    <clipPath id="_clip1">
        <rect id="fi-image1"  x="0" y="-0" width="32" height="32"/>
    </clipPath>
    <g clip-path="url(#_clip1)">
        <path d="M31,4.23C31,2.446 29.554,1 27.77,1L3.956,1C3.172,1 2.42,1.311 1.866,1.866C1.311,2.42 1,3.172 1,3.956L1,27.947C1,29.633 2.367,31 4.053,31L27.889,31C29.607,31 31,29.607 31,27.889L31,4.23Z" style="fill:none;"/>
        <path d="M33.5,8.375L17.5,1.5L-1,14.5L-0.5,33.5L33,33.5L33.5,8.375Z" style="fill:#00a520;"/>
    </g>
</svg>
