<?xml version="1.0" encoding="UTF-8" standalone="no"?>
<!DOCTYPE svg PUBLIC "-//W3C//DTD SVG 1.1//EN" "http://www.w3.org/Graphics/SVG/1.1/DTD/svg11.dtd">
<svg width="100%" height="100%" viewBox="0 0 32 32" version="1.1" xmlns="http://www.w3.org/2000/svg"
     xmlns:xlink="http://www.w3.org/1999/xlink" xml:space="preserve" xmlns:serif="http://www.serif.com/"
     style="fill-rule:evenodd;clip-rule:evenodd;stroke-linejoin:round;stroke-miterlimit:2;">
    <rect id="fi-markdown" x="0" y="-0" width="32" height="32" style="fill:none;"/>
    <g id="fi-markdown1" serif:id="fi-markdown">
        <path d="M11.996,26.05L7.268,7.258L7.268,27.62C7.268,28.746 7.016,29.592 6.513,30.155C6.01,30.718 5.343,31 4.511,31C3.706,31 3.049,30.722 2.539,30.165C2.03,29.608 1.775,28.76 1.775,27.62L1.775,4.28C1.775,2.992 2.11,2.123 2.781,1.674C3.451,1.225 4.357,1 5.497,1L7.348,1C8.461,1 9.27,1.101 9.773,1.302C10.276,1.503 10.648,1.865 10.889,2.388C11.131,2.911 11.406,3.763 11.714,4.944L16,21.101L20.286,4.944C20.594,3.763 20.869,2.911 21.111,2.388C21.352,1.865 21.724,1.503 22.227,1.302C22.73,1.101 23.539,1 24.652,1L26.503,1C27.643,1 28.549,1.225 29.219,1.674C29.89,2.123 30.225,2.992 30.225,4.28L30.225,27.62C30.225,28.746 29.974,29.592 29.471,30.155C28.968,30.718 28.294,31 27.449,31C26.657,31 26.007,30.718 25.497,30.155C24.987,29.592 24.732,28.746 24.732,27.62L24.732,7.258L20.004,26.05C19.696,27.271 19.444,28.166 19.249,28.736C19.055,29.307 18.696,29.826 18.173,30.296C17.65,30.765 16.926,31 16,31C15.302,31 14.712,30.849 14.229,30.547C13.746,30.245 13.371,29.86 13.103,29.39C12.834,28.921 12.623,28.401 12.469,27.831C12.315,27.261 12.157,26.667 11.996,26.05Z"
              style="fill:currentColor;fill-rule:nonzero;"/>
    </g>
</svg>
