<?xml version="1.0" encoding="UTF-8" standalone="no"?>
<!DOCTYPE svg PUBLIC "-//W3C//DTD SVG 1.1//EN" "http://www.w3.org/Graphics/SVG/1.1/DTD/svg11.dtd">
<svg width="100%" height="100%" viewBox="0 0 24 24" version="1.1" xmlns="http://www.w3.org/2000/svg" xmlns:xlink="http://www.w3.org/1999/xlink" xml:space="preserve" xmlns:serif="http://www.serif.com/" style="fill-rule:evenodd;clip-rule:evenodd;stroke-linejoin:round;stroke-miterlimit:2;">
    <rect id="add-frame" x="0" y="0" width="24" height="24" style="fill:none;"/>
    <g id="add-frame1" serif:id="add-frame">
        <path d="M9.25,9.25L9.25,1.75L14.75,1.75L14.75,9.25L22.25,9.25L22.25,14.75L14.75,14.75L14.75,22.25L9.25,22.25L9.25,14.75L1.75,14.75L1.75,9.25L9.25,9.25Z" style="fill:#b17fbe;"/>
        <path d="M8.25,8.25L8.25,1.75C8.25,1.198 8.698,0.75 9.25,0.75L14.75,0.75C15.302,0.75 15.75,1.198 15.75,1.75L15.75,8.25L22.25,8.25C22.802,8.25 23.25,8.698 23.25,9.25L23.25,14.75C23.25,15.302 22.802,15.75 22.25,15.75L15.75,15.75L15.75,22.25C15.75,22.802 15.302,23.25 14.75,23.25L9.25,23.25C8.698,23.25 8.25,22.802 8.25,22.25L8.25,15.75L1.75,15.75C1.198,15.75 0.75,15.302 0.75,14.75L0.75,9.25C0.75,8.698 1.198,8.25 1.75,8.25L8.25,8.25ZM9.25,9.25L1.75,9.25L1.75,14.75L9.25,14.75L9.25,22.25L14.75,22.25L14.75,14.75L22.25,14.75L22.25,9.25L14.75,9.25L14.75,1.75L9.25,1.75L9.25,9.25Z"/>
    </g>
</svg>
