<?xml version="1.0" encoding="UTF-8" standalone="no"?>
<!DOCTYPE svg PUBLIC "-//W3C//DTD SVG 1.1//EN" "http://www.w3.org/Graphics/SVG/1.1/DTD/svg11.dtd">
<svg width="100%" height="100%" viewBox="0 0 24 24" version="1.1" xmlns="http://www.w3.org/2000/svg" xmlns:xlink="http://www.w3.org/1999/xlink" xml:space="preserve" xmlns:serif="http://www.serif.com/" style="fill-rule:evenodd;clip-rule:evenodd;stroke-linejoin:round;stroke-miterlimit:2;">
    <rect id="add-frame" x="0" y="0" width="24" height="24" style="fill:none;"/>
    <clipPath id="_clip1">
        <rect id="add-frame1" serif:id="add-frame" x="0" y="0" width="24" height="24"/>
    </clipPath>
    <g clip-path="url(#_clip1)">
        <rect x="0" y="0" width="24" height="24" style="fill:#b17fbe;"/>
        <path d="M24,0L24,24L0,24L0,0L24,0ZM23,1C23,1 1,1 1,1C1,1 1,23 1,23C1,23 23,23 23,23L23,1Z"/>
        <path d="M9.268,9.585L9.268,3L14.232,3L14.232,9.585L21,9.585L21,14.415L14.232,14.415L14.232,21L9.268,21L9.268,14.415L2.5,14.415L2.5,9.585L9.268,9.585Z" style="fill:#fff;"/>
    </g>
</svg>
