<?xml version="1.0" encoding="UTF-8" standalone="no"?>
<!DOCTYPE svg PUBLIC "-//W3C//DTD SVG 1.1//EN" "http://www.w3.org/Graphics/SVG/1.1/DTD/svg11.dtd">
<svg width="100%" height="100%" viewBox="0 0 33 33" version="1.1" xmlns="http://www.w3.org/2000/svg" xmlns:xlink="http://www.w3.org/1999/xlink" xml:space="preserve" xmlns:serif="http://www.serif.com/" style="fill-rule:evenodd;clip-rule:evenodd;stroke-linejoin:round;stroke-miterlimit:2;">
    <rect id="dp-unknown-button" x="0.304" y="0.702" width="32" height="32" style="fill:none;"/>
    <clipPath id="_clip1">
        <rect id="dp-unknown-button1" serif:id="dp-unknown-button" x="0.304" y="0.702" width="32" height="32"/>
    </clipPath>
    <g clip-path="url(#_clip1)">
        <path id="log-in-circle" d="M16.304,0.702C25.134,0.702 32.304,7.871 32.304,16.702C32.304,25.532 25.134,32.702 16.304,32.702C7.473,32.702 0.304,25.532 0.304,16.702C0.304,7.871 7.473,0.702 16.304,0.702ZM16.304,4.702C9.681,4.702 4.304,10.079 4.304,16.702C4.304,23.325 9.681,28.702 16.304,28.702C22.927,28.702 28.304,23.325 28.304,16.702C28.304,10.079 22.927,4.702 16.304,4.702Z" style="fill:#fff;"/>
        <circle cx="16.304" cy="16.702" r="16" style="fill:#3e3e3e;"/>
        <path d="M7.567,10.945C7.567,9.832 7.925,8.704 8.64,7.561C9.355,6.419 10.397,5.472 11.769,4.722C13.14,3.972 14.739,3.597 16.567,3.597C18.267,3.597 19.767,3.911 21.067,4.538C22.368,5.165 23.373,6.017 24.082,7.095C24.791,8.173 25.146,9.345 25.146,10.611C25.146,11.607 24.943,12.48 24.539,13.23C24.135,13.98 23.654,14.628 23.098,15.173C22.541,15.717 21.542,16.634 20.101,17.923C19.702,18.287 19.383,18.606 19.143,18.881C18.902,19.157 18.724,19.409 18.606,19.637C18.489,19.866 18.398,20.094 18.334,20.323C18.27,20.551 18.173,20.953 18.044,21.527C17.821,22.746 17.124,23.355 15.952,23.355C15.343,23.355 14.83,23.156 14.414,22.757C13.998,22.359 13.79,21.767 13.79,20.982C13.79,19.998 13.942,19.145 14.247,18.424C14.552,17.704 14.956,17.071 15.46,16.526C15.964,15.981 16.644,15.334 17.499,14.584C18.249,13.927 18.791,13.432 19.125,13.098C19.459,12.764 19.74,12.392 19.969,11.982C20.197,11.572 20.312,11.127 20.312,10.646C20.312,9.709 19.963,8.918 19.266,8.273C18.568,7.629 17.669,7.306 16.567,7.306C15.278,7.306 14.329,7.631 13.72,8.282C13.11,8.932 12.595,9.89 12.173,11.156C11.774,12.48 11.019,13.142 9.905,13.142C9.249,13.142 8.695,12.911 8.244,12.448C7.793,11.985 7.567,11.484 7.567,10.945ZM16.146,30.211C15.431,30.211 14.807,29.979 14.273,29.516C13.74,29.053 13.474,28.406 13.474,27.574C13.474,26.836 13.731,26.214 14.247,25.711C14.763,25.207 15.396,24.955 16.146,24.955C16.884,24.955 17.505,25.207 18.009,25.711C18.513,26.214 18.765,26.836 18.765,27.574C18.765,28.394 18.501,29.039 17.974,29.507C17.446,29.976 16.837,30.211 16.146,30.211Z" style="fill:#00a520;fill-rule:nonzero;"/>
    </g>
</svg>
