<?xml version="1.0" encoding="UTF-8" standalone="no"?>
<!DOCTYPE svg PUBLIC "-//W3C//DTD SVG 1.1//EN" "http://www.w3.org/Graphics/SVG/1.1/DTD/svg11.dtd">
<svg width="100%" height="100%" viewBox="0 0 24 24" version="1.1" xmlns="http://www.w3.org/2000/svg"
     xml:space="preserve"
     style="fill-rule:evenodd;clip-rule:evenodd;stroke-linejoin:round;stroke-miterlimit:2;">
    <g transform="matrix(1,0,0,1,-102.288,-416.891)">
        <g id="frame-edit" transform="matrix(1.06667,0,0,1.09091,-216.645,232.527)">
            <rect x="299" y="169" width="22.5" height="22" style="fill:none;"/>
            <g transform="matrix(0.9375,0,0,0.916667,203.808,-213.608)">
                <path d="M103.788,425.391L110.288,419.391L123.288,432.891L123.288,439.391L117.288,439.391L103.788,425.391Z" style="fill:rgb(177,127,190);"/>
                <path d="M103.11,424.656L109.61,418.656C110.01,418.287 110.631,418.306 111.009,418.697L124.009,432.197C124.188,432.384 124.288,432.632 124.288,432.891L124.288,439.391C124.288,439.943 123.84,440.391 123.288,440.391L117.288,440.391C117.017,440.391 116.757,440.281 116.568,440.085L103.068,426.085C102.882,425.892 102.781,425.631 102.789,425.362C102.796,425.093 102.912,424.839 103.11,424.656ZM103.788,425.391L117.288,439.391L123.288,439.391L123.288,432.891L110.288,419.391L103.788,425.391Z"/>
            </g>
        </g>
    </g>
</svg>
