<?xml version="1.0" encoding="UTF-8" standalone="no"?>
<!DOCTYPE svg PUBLIC "-//W3C//DTD SVG 1.1//EN" "http://www.w3.org/Graphics/SVG/1.1/DTD/svg11.dtd">
<svg width="100%" height="100%" viewBox="0 0 24 24" version="1.1" xmlns="http://www.w3.org/2000/svg"
     xml:space="preserve"
     style="fill-rule:evenodd;clip-rule:evenodd;stroke-linejoin:round;stroke-miterlimit:2;">
    <g transform="matrix(1,0,0,1,-76.9573,-417.003)">
        <g id="frame-move" transform="matrix(1.06667,0,0,1.09091,-241.976,232.639)">
            <rect x="299" y="169" width="22.5" height="22" style="fill:none;"/>
            <g transform="matrix(0.9375,0,0,0.916667,225.915,-212.794)">
                <rect x="94.957" y="418.003" width="5" height="5" style="fill:rgb(177,127,190);"/>
                <path d="M100.957,418.003L100.957,423.003C100.957,423.555 100.51,424.003 99.957,424.003L94.957,424.003C94.405,424.003 93.957,423.555 93.957,423.003L93.957,418.003C93.957,417.451 94.405,417.003 94.957,417.003L99.957,417.003C100.51,417.003 100.957,417.451 100.957,418.003ZM99.957,418.003L94.957,418.003L94.957,423.003L99.957,423.003L99.957,418.003Z"/>
            </g>
            <g transform="matrix(0.9375,0,0,0.916667,225.915,-198.128)">
                <rect x="94.957" y="418.003" width="5" height="5" style="fill:rgb(177,127,190);"/>
                <path d="M100.957,418.003L100.957,423.003C100.957,423.555 100.51,424.003 99.957,424.003L94.957,424.003C94.405,424.003 93.957,423.555 93.957,423.003L93.957,418.003C93.957,417.451 94.405,417.003 94.957,417.003L99.957,417.003C100.51,417.003 100.957,417.451 100.957,418.003ZM99.957,418.003L94.957,418.003L94.957,423.003L99.957,423.003L99.957,418.003Z"/>
            </g>
            <g transform="matrix(0.9375,0,0,0.916667,211.852,-212.794)">
                <rect x="94.957" y="418.003" width="5" height="5" style="fill:rgb(177,127,190);"/>
                <path d="M100.957,418.003L100.957,423.003C100.957,423.555 100.51,424.003 99.957,424.003L94.957,424.003C94.405,424.003 93.957,423.555 93.957,423.003L93.957,418.003C93.957,417.451 94.405,417.003 94.957,417.003L99.957,417.003C100.51,417.003 100.957,417.451 100.957,418.003ZM99.957,418.003L94.957,418.003L94.957,423.003L99.957,423.003L99.957,418.003Z"/>
            </g>
            <g transform="matrix(0.9375,0,0,0.916667,211.852,-198.128)">
                <rect x="94.957" y="418.003" width="5" height="5" style="fill:rgb(177,127,190);"/>
                <path d="M100.957,418.003L100.957,423.003C100.957,423.555 100.51,424.003 99.957,424.003L94.957,424.003C94.405,424.003 93.957,423.555 93.957,423.003L93.957,418.003C93.957,417.451 94.405,417.003 94.957,417.003L99.957,417.003C100.51,417.003 100.957,417.451 100.957,418.003ZM99.957,418.003L94.957,418.003L94.957,423.003L99.957,423.003L99.957,418.003Z"/>
            </g>
        </g>
    </g>
</svg>
