<?xml version="1.0" encoding="UTF-8" standalone="no"?>
<!DOCTYPE svg PUBLIC "-//W3C//DTD SVG 1.1//EN" "http://www.w3.org/Graphics/SVG/1.1/DTD/svg11.dtd">
<svg width="100%" height="100%" viewBox="0 0 24 24" version="1.1" xmlns="http://www.w3.org/2000/svg" xmlns:xlink="http://www.w3.org/1999/xlink" xml:space="preserve"
     style="fill-rule:evenodd;clip-rule:evenodd;stroke-linejoin:round;stroke-miterlimit:2;">
    <g transform="matrix(1,0,0,1,-51.0996,-420.918)">
        <g id="frame-list" transform="matrix(1.06667,0,0,1.09091,-267.834,236.554)">
            <rect x="299" y="169" width="22.5" height="22" style="fill:none;"/>
            <g transform="matrix(0.9375,0,0,0.916667,251.328,-216.841)">
                <rect x="52.6" y="422.418" width="20.5" height="4" style="fill:rgb(177,127,190);"/>
                <path d="M74.1,422.418L74.1,426.418C74.1,426.97 73.652,427.418 73.1,427.418L52.6,427.418C52.047,427.418 51.6,426.97 51.6,426.418L51.6,422.418C51.6,421.866 52.047,421.418 52.6,421.418L73.1,421.418C73.652,421.418 74.1,421.866 74.1,422.418ZM73.1,422.418L52.6,422.418L52.6,426.418L73.1,426.418L73.1,422.418Z"/>
            </g>
            <g transform="matrix(0.9375,0,0,0.916667,251.328,-201.716)">
                <rect x="52.6" y="422.418" width="20.5" height="4" style="fill:rgb(177,127,190);"/>
                <path d="M74.1,422.418L74.1,426.418C74.1,426.97 73.652,427.418 73.1,427.418L52.6,427.418C52.047,427.418 51.6,426.97 51.6,426.418L51.6,422.418C51.6,421.866 52.047,421.418 52.6,421.418L73.1,421.418C73.652,421.418 74.1,421.866 74.1,422.418ZM73.1,422.418L52.6,422.418L52.6,426.418L73.1,426.418L73.1,422.418Z"/>
            </g>
            <g transform="matrix(0.9375,0,0,0.916667,251.328,-209.279)">
                <rect x="52.6" y="422.418" width="20.5" height="4" style="fill:rgb(177,127,190);"/>
                <path d="M74.1,422.418L74.1,426.418C74.1,426.97 73.652,427.418 73.1,427.418L52.6,427.418C52.047,427.418 51.6,426.97 51.6,426.418L51.6,422.418C51.6,421.866 52.047,421.418 52.6,421.418L73.1,421.418C73.652,421.418 74.1,421.866 74.1,422.418ZM73.1,422.418L52.6,422.418L52.6,426.418L73.1,426.418L73.1,422.418Z"/>
            </g>
        </g>
    </g>
</svg>
