<?xml version="1.0" encoding="UTF-8" standalone="no"?>
<!DOCTYPE svg PUBLIC "-//W3C//DTD SVG 1.1//EN" "http://www.w3.org/Graphics/SVG/1.1/DTD/svg11.dtd">
<svg width="100%" height="100%" viewBox="0 0 25 24" version="1.1" xmlns="http://www.w3.org/2000/svg" xmlns:xlink="http://www.w3.org/1999/xlink" xml:space="preserve" xmlns:serif="http://www.serif.com/" style="fill-rule:evenodd;clip-rule:evenodd;stroke-linejoin:round;stroke-miterlimit:2;">
    <g transform="matrix(1,0,0,1,-289,-417)">
        <g transform="matrix(1.06667,0,0,1.09091,-29.4465,232.639)">
            <rect id="frame-move" x="299" y="169" width="22.5" height="22" style="fill:none;"/>
            <clipPath id="_clip1">
                <rect id="frame-move1" serif:id="frame-move" x="299" y="169" width="22.5" height="22"/>
            </clipPath>
            <g clip-path="url(#_clip1)">
                <g transform="matrix(1.13636,0,0,1.14583,-32.0646,-311.566)">
                    <path d="M309.487,421.003L309.487,437.003L292.987,437.003L292.987,421.003L309.487,421.003ZM308.662,421.803L293.812,421.803L293.812,436.203L308.662,436.203L308.662,421.803Z"/>
                </g>
                <g transform="matrix(0.9375,0,0,0.916667,218.884,-214.169)">
                    <rect x="94.957" y="418.003" width="5" height="5" style="fill:rgb(177,127,190);"/>
                </g>
                <g transform="matrix(0.9375,0,0,0.916667,227.79,-205.461)">
                    <rect x="94.957" y="418.003" width="5" height="5" style="fill:rgb(177,127,190);"/>
                </g>
                <g transform="matrix(0.9375,0,0,0.916667,209.977,-205.461)">
                    <rect x="94.957" y="418.003" width="5" height="5" style="fill:rgb(177,127,190);"/>
                </g>
                <g transform="matrix(0.9375,0,0,0.916667,218.884,-196.753)">
                    <rect x="94.957" y="418.003" width="5" height="5" style="fill:rgb(177,127,190);"/>
                </g>
            </g>
        </g>
    </g>
</svg>
