<?xml version="1.0" encoding="UTF-8" standalone="no"?>
<!DOCTYPE svg PUBLIC "-//W3C//DTD SVG 1.1//EN" "http://www.w3.org/Graphics/SVG/1.1/DTD/svg11.dtd">
<svg width="100%" height="100%" viewBox="0 0 25 24" version="1.1" xmlns="http://www.w3.org/2000/svg" xmlns:xlink="http://www.w3.org/1999/xlink" xml:space="preserve" xmlns:serif="http://www.serif.com/" style="fill-rule:evenodd;clip-rule:evenodd;stroke-linejoin:round;stroke-miterlimit:2;">
    <g transform="matrix(1,0,0,1,-289,-417)">
        <g transform="matrix(1.06667,0,0,1.09091,-29.4465,232.639)">
            <rect id="frame-move" x="299" y="169" width="22.5" height="22" style="fill:none;"/>
            <clipPath id="_clip1">
                <rect id="frame-move1" serif:id="frame-move" x="299" y="169" width="22.5" height="22"/>
            </clipPath>
            <g clip-path="url(#_clip1)">
                <g transform="matrix(1.07955,0,0,1.11719,-14.9489,-299.048)">
                    <path d="M309.487,421.003L309.487,437.003L292.987,437.003L292.987,421.003L309.487,421.003ZM308.618,421.824L293.855,421.824C293.855,421.824 293.855,436.183 293.855,436.183L308.618,436.183L308.618,421.824Z" style="fill:rgb(96,96,96);"/>
                </g>
                <g transform="matrix(0.9375,0,0,0.916667,218.415,-212.794)">
                    <rect x="94.957" y="418.003" width="5" height="5" style="fill:rgb(177,127,190);"/>
                    <path d="M100.957,418.003L100.957,423.003C100.957,423.555 100.51,424.003 99.957,424.003L94.957,424.003C94.405,424.003 93.957,423.555 93.957,423.003L93.957,418.003C93.957,417.451 94.405,417.003 94.957,417.003L99.957,417.003C100.51,417.003 100.957,417.451 100.957,418.003ZM99.957,418.003L94.957,418.003L94.957,423.003L99.957,423.003L99.957,418.003Z"/>
                </g>
                <g transform="matrix(0.9375,0,0,0.916667,226.852,-205.461)">
                    <rect x="94.957" y="418.003" width="5" height="5" style="fill:rgb(177,127,190);"/>
                    <path d="M100.957,418.003L100.957,423.003C100.957,423.555 100.51,424.003 99.957,424.003L94.957,424.003C94.405,424.003 93.957,423.555 93.957,423.003L93.957,418.003C93.957,417.451 94.405,417.003 94.957,417.003L99.957,417.003C100.51,417.003 100.957,417.451 100.957,418.003ZM99.957,418.003L94.957,418.003L94.957,423.003L99.957,423.003L99.957,418.003Z"/>
                </g>
                <g transform="matrix(0.9375,0,0,0.916667,211.384,-205.461)">
                    <rect x="94.957" y="418.003" width="5" height="5" style="fill:rgb(177,127,190);"/>
                    <path d="M100.957,418.003L100.957,423.003C100.957,423.555 100.51,424.003 99.957,424.003L94.957,424.003C94.405,424.003 93.957,423.555 93.957,423.003L93.957,418.003C93.957,417.451 94.405,417.003 94.957,417.003L99.957,417.003C100.51,417.003 100.957,417.451 100.957,418.003ZM99.957,418.003L94.957,418.003L94.957,423.003L99.957,423.003L99.957,418.003Z"/>
                </g>
                <g transform="matrix(0.9375,0,0,0.916667,218.884,-197.669)">
                    <rect x="94.957" y="418.003" width="5" height="5" style="fill:rgb(177,127,190);"/>
                    <path d="M100.957,418.003L100.957,423.003C100.957,423.555 100.51,424.003 99.957,424.003L94.957,424.003C94.405,424.003 93.957,423.555 93.957,423.003L93.957,418.003C93.957,417.451 94.405,417.003 94.957,417.003L99.957,417.003C100.51,417.003 100.957,417.451 100.957,418.003ZM99.957,418.003L94.957,418.003L94.957,423.003L99.957,423.003L99.957,418.003Z"/>
                </g>
            </g>
        </g>
    </g>
</svg>
