<?xml version="1.0" encoding="UTF-8" standalone="no"?>
<!DOCTYPE svg PUBLIC "-//W3C//DTD SVG 1.1//EN" "http://www.w3.org/Graphics/SVG/1.1/DTD/svg11.dtd">
<svg width="100%" height="100%" viewBox="0 0 20 20" version="1.1" xmlns="http://www.w3.org/2000/svg" xmlns:xlink="http://www.w3.org/1999/xlink" xml:space="preserve" xmlns:serif="http://www.serif.com/" style="fill-rule:evenodd;clip-rule:evenodd;stroke-linejoin:round;stroke-miterlimit:2;">
    <rect id="link-on" x="0" y="0" width="20" height="20" style="fill:none;"/>
    <clipPath id="_clip1">
        <rect id="link-on1" serif:id="link-on" x="0" y="0" width="20" height="20"/>
    </clipPath>
    <g clip-path="url(#_clip1)">
        <path d="M18,2L18,18L2,18L2,2L18,2ZM16,4L4,4L4,16L16,16L16,4Z" style="fill:#00a520;"/>
        <path d="M12.25,-0.25C12.25,-1.492 11.242,-2.5 10,-2.5C8.758,-2.5 7.75,-1.492 7.75,-0.25L7.75,8.25C7.75,9.492 8.758,10.5 10,10.5C11.242,10.5 12.25,9.492 12.25,8.25L12.25,-0.25Z"/>
    </g>
</svg>
