<?xml version="1.0" encoding="UTF-8" standalone="no"?>
<!DOCTYPE svg PUBLIC "-//W3C//DTD SVG 1.1//EN" "http://www.w3.org/Graphics/SVG/1.1/DTD/svg11.dtd">
<svg width="100%" height="100%" viewBox="0 0 20 20" version="1.1" xmlns="http://www.w3.org/2000/svg" xmlns:xlink="http://www.w3.org/1999/xlink" xml:space="preserve" xmlns:serif="http://www.serif.com/" style="fill-rule:evenodd;clip-rule:evenodd;stroke-linejoin:round;stroke-miterlimit:2;">
    <rect id="link-off" x="0" y="0" width="20" height="20" style="fill:none;"/>
    <clipPath id="_clip1">
        <rect id="link-off1" serif:id="link-off" x="0" y="0" width="20" height="20"/>
    </clipPath>
    <g clip-path="url(#_clip1)">
        <path d="M20,8L20,23L0,23L0,8L20,8ZM19,9C19,9 1,9 1,9L1,22C1,22 19,22 19,22L19,9Z" style="fill:#999;"/>
        <path d="M15,5L5,5L10,0L15,5Z" style="fill:#f40;"/>
        <path d="M7.75,15.323L12.25,12.113L12.25,15.75C12.25,16.992 11.242,18 10,18C8.758,18 7.75,16.992 7.75,15.75L7.75,15.323ZM12.25,9.963L7.75,13.174L7.75,4.25C7.75,3.008 8.758,2 10,2C11.242,2 12.25,3.008 12.25,4.25L12.25,9.963Z" style="fill:#f40;"/>
    </g>
</svg>
