<?xml version="1.0" encoding="UTF-8" standalone="no"?>
<!DOCTYPE svg PUBLIC "-//W3C//DTD SVG 1.1//EN" "http://www.w3.org/Graphics/SVG/1.1/DTD/svg11.dtd">
<svg width="100%" height="100%" viewBox="0 0 80 80" version="1.1" xmlns="http://www.w3.org/2000/svg" xmlns:xlink="http://www.w3.org/1999/xlink" xml:space="preserve" xmlns:serif="http://www.serif.com/" style="fill-rule:evenodd;clip-rule:evenodd;stroke-linejoin:round;stroke-miterlimit:2;">
    <rect id="no-image" x="-0" y="-0" width="80" height="80" style="fill:none;"/>
    <clipPath id="_clip1">
        <rect id="no-image1" serif:id="no-image" x="-0" y="-0" width="80" height="80"/>
    </clipPath>
    <g clip-path="url(#_clip1)">
        <path d="M80,-0L80,80L0,80L0,-0L80,-0ZM77,3L3,3L3,77L77,77L77,3Z" style="fill:#999;"/>
        <path d="M80,21.739L42.899,5.797L0,35.942L1.159,80L78.841,80L80,21.739Z" style="fill:#999;"/>
        <path d="M21.166,33.909C21.166,31.477 21.933,29.008 23.494,26.513C25.03,24.057 27.265,22.017 30.211,20.405C33.131,18.808 36.535,18 40.428,18C44.04,18 47.228,18.675 49.993,20.007C52.808,21.364 54.977,23.215 56.511,25.548C58.061,27.904 58.834,30.466 58.834,33.231C58.834,35.434 58.377,37.362 57.483,39.02C56.613,40.635 55.576,42.028 54.378,43.201C53.243,44.313 51.206,46.182 48.268,48.81C47.494,49.516 46.873,50.135 46.407,50.67C45.982,51.157 45.662,51.599 45.455,52.003C45.249,52.405 45.088,52.807 44.975,53.209C44.848,53.66 44.658,54.451 44.406,55.569C44.132,57.063 43.537,58.168 42.682,58.915C41.809,59.679 40.648,60.09 39.18,60.09C37.668,60.09 36.399,59.588 35.367,58.599C34.35,57.625 33.793,56.195 33.793,54.275C33.793,52.127 34.134,50.268 34.799,48.696C35.464,47.123 36.347,45.743 37.447,44.554C38.488,43.428 39.892,42.089 41.659,40.54C43.159,39.228 44.243,38.239 44.91,37.571C45.522,36.959 46.037,36.278 46.456,35.527C46.836,34.844 47.025,34.102 47.025,33.303C47.025,31.69 46.423,30.33 45.224,29.222C43.987,28.078 42.383,27.526 40.428,27.526C38.152,27.526 36.456,28.041 35.38,29.189C34.225,30.422 33.264,32.245 32.469,34.625C31.503,37.835 29.609,39.367 26.91,39.367C25.295,39.367 23.934,38.795 22.824,37.656C21.702,36.506 21.166,35.249 21.166,33.909ZM22.166,33.909C22.166,35.003 22.624,36.019 23.54,36.958C24.455,37.898 25.579,38.367 26.91,38.367C29.169,38.367 30.703,37.024 31.511,34.337C32.367,31.769 33.413,29.825 34.65,28.505C35.886,27.186 37.812,26.526 40.428,26.526C42.663,26.526 44.488,27.18 45.903,28.487C47.318,29.795 48.025,31.4 48.025,33.303C48.025,34.277 47.793,35.181 47.33,36.013C46.866,36.845 46.295,37.6 45.618,38.278C44.94,38.956 43.84,39.96 42.318,41.292C40.583,42.814 39.203,44.127 38.181,45.233C37.159,46.339 36.338,47.623 35.72,49.085C35.102,50.548 34.793,52.277 34.793,54.275C34.793,55.868 35.215,57.069 36.059,57.877C36.903,58.686 37.943,59.09 39.18,59.09C41.557,59.09 42.972,57.853 43.424,55.38C43.686,54.215 43.882,53.401 44.013,52.937C44.143,52.474 44.328,52.01 44.565,51.546C44.803,51.083 45.166,50.571 45.653,50.013C46.141,49.454 46.789,48.806 47.597,48.069C50.522,45.453 52.549,43.592 53.678,42.487C54.808,41.381 55.783,40.067 56.603,38.546C57.423,37.024 57.834,35.252 57.834,33.231C57.834,30.663 57.114,28.285 55.676,26.098C54.237,23.91 52.198,22.18 49.559,20.908C46.919,19.636 43.876,19 40.428,19C36.719,19 33.473,19.761 30.691,21.283C27.909,22.804 25.793,24.725 24.342,27.043C22.892,29.361 22.166,31.65 22.166,33.909ZM39.572,74C37.871,74 36.387,73.448 35.118,72.346C33.825,71.224 33.151,69.667 33.151,67.65C33.151,65.868 33.776,64.37 35.021,63.154C36.258,61.945 37.773,61.336 39.572,61.336C41.351,61.336 42.846,61.948 44.06,63.162C45.274,64.376 45.886,65.871 45.886,67.65C45.886,69.636 45.222,71.186 43.946,72.321C42.684,73.442 41.226,74 39.572,74ZM39.572,73C40.975,73 42.211,72.524 43.281,71.573C44.351,70.622 44.886,69.314 44.886,67.65C44.886,66.152 44.375,64.892 43.353,63.869C42.33,62.847 41.07,62.336 39.572,62.336C38.05,62.336 36.766,62.847 35.72,63.869C34.674,64.892 34.151,66.152 34.151,67.65C34.151,69.338 34.692,70.652 35.773,71.591C36.855,72.53 38.122,73 39.572,73Z" style="fill:#fff;"/>
    </g>
</svg>
