<?xml version="1.0" encoding="UTF-8" standalone="no"?>
<!DOCTYPE svg PUBLIC "-//W3C//DTD SVG 1.1//EN" "http://www.w3.org/Graphics/SVG/1.1/DTD/svg11.dtd">
<svg width="100%" height="100%" viewBox="0 0 41 41" version="1.1" xmlns="http://www.w3.org/2000/svg" xmlns:xlink="http://www.w3.org/1999/xlink" xml:space="preserve" xmlns:serif="http://www.serif.com/" style="fill-rule:evenodd;clip-rule:evenodd;stroke-linejoin:round;stroke-miterlimit:2;">
    <rect id="page-zoom" x="0.384" y="0.416" width="40" height="40" style="fill:none;"/>
    <g id="page-zoom1" serif:id="page-zoom">
        <path d="M10.562,24.97C9.071,22.682 8.205,19.952 8.205,17.021C8.205,8.968 14.742,2.431 22.794,2.431C30.847,2.431 37.384,8.968 37.384,17.021C37.384,25.073 30.847,31.61 22.794,31.61C20.139,31.61 17.649,30.899 15.503,29.657L6.652,38.508L1.838,33.694L10.562,24.97ZM21.822,3.404C15.38,3.404 10.15,8.633 10.15,15.075C10.15,21.517 15.38,26.747 21.822,26.747C28.264,26.747 33.493,21.517 33.493,15.075C33.493,8.633 28.264,3.404 21.822,3.404Z" style="fill:#00d0c6;"/>
        <path d="M9.297,24.821C7.967,22.526 7.205,19.862 7.205,17.021C7.205,8.416 14.19,1.431 22.794,1.431C31.399,1.431 38.384,8.416 38.384,17.021C38.384,25.625 31.399,32.61 22.794,32.61C20.232,32.61 17.814,31.991 15.681,30.894L7.359,39.215C6.969,39.606 6.336,39.606 5.945,39.215L1.131,34.401C0.74,34.01 0.74,33.377 1.131,32.986L9.297,24.821ZM10.562,24.97L1.838,33.694L6.652,38.508L15.503,29.657C17.649,30.899 20.139,31.61 22.794,31.61C30.847,31.61 37.384,25.073 37.384,17.021C37.384,8.968 30.847,2.431 22.794,2.431C14.742,2.431 8.205,8.968 8.205,17.021C8.205,19.952 9.071,22.682 10.562,24.97ZM21.822,3.404C28.264,3.404 33.493,8.633 33.493,15.075C33.493,21.517 28.264,26.747 21.822,26.747C15.38,26.747 10.15,21.517 10.15,15.075C10.15,8.633 15.38,3.404 21.822,3.404ZM21.822,4.404C15.932,4.404 11.15,9.185 11.15,15.075C11.15,20.965 15.932,25.747 21.822,25.747C27.712,25.747 32.493,20.965 32.493,15.075C32.493,9.185 27.712,4.404 21.822,4.404Z"/>
    </g>
</svg>
