<?xml version="1.0" encoding="UTF-8" standalone="no"?>
<!DOCTYPE svg PUBLIC "-//W3C//DTD SVG 1.1//EN" "http://www.w3.org/Graphics/SVG/1.1/DTD/svg11.dtd">
<svg width="100%" height="100%" viewBox="0 0 40 40" version="1.1" xmlns="http://www.w3.org/2000/svg" xmlns:xlink="http://www.w3.org/1999/xlink" xml:space="preserve" xmlns:serif="http://www.serif.com/" style="fill-rule:evenodd;clip-rule:evenodd;stroke-linejoin:round;stroke-miterlimit:2;">
    <rect id="page-move" x="0" y="0" width="40" height="40" style="fill:none;"/>
    <g id="page-move1" serif:id="page-move">
        <path d="M9.269,23L9.269,26L2,20L9.269,14L9.269,17L30.731,17L30.731,14L38,20L30.731,26L30.731,23L9.269,23Z" style="fill:#00d0c6;"/>
        <path d="M10.269,24L10.269,26C10.269,26.387 10.046,26.74 9.695,26.905C9.345,27.07 8.931,27.018 8.632,26.771L1.363,20.771C1.133,20.581 1,20.298 1,20C1,19.702 1.133,19.419 1.363,19.229L8.632,13.229C8.931,12.982 9.345,12.93 9.695,13.095C10.046,13.26 10.269,13.613 10.269,14L10.269,16C10.269,16 29.731,16 29.731,16L29.731,14C29.731,13.613 29.954,13.26 30.305,13.095C30.655,12.93 31.069,12.982 31.368,13.229L38.637,19.229C38.867,19.419 39,19.702 39,20C39,20.298 38.867,20.581 38.637,20.771L31.368,26.771C31.069,27.018 30.655,27.07 30.305,26.905C29.954,26.74 29.731,26.387 29.731,26L29.731,24L10.269,24ZM9.269,23L30.731,23L30.731,26L38,20L30.731,14L30.731,17L9.269,17L9.269,14L2,20L9.269,26L9.269,23Z"/>
        <path d="M17,9.269L14,9.269L20,2L26,9.269L23,9.269L23,30.731L26,30.731L20,38L14,30.731L17,30.731L17,9.269Z" style="fill:#00d0c6;"/>
        <path d="M16,10.269L14,10.269C13.613,10.269 13.26,10.046 13.095,9.695C12.93,9.345 12.982,8.931 13.229,8.632L19.229,1.363C19.419,1.133 19.702,1 20,1C20.298,1 20.581,1.133 20.771,1.363L26.771,8.632C27.018,8.931 27.07,9.345 26.905,9.695C26.74,10.046 26.387,10.269 26,10.269L24,10.269C24,10.269 24,29.731 24,29.731L26,29.731C26.387,29.731 26.74,29.954 26.905,30.305C27.07,30.655 27.018,31.069 26.771,31.368L20.771,38.637C20.581,38.867 20.298,39 20,39C19.702,39 19.419,38.867 19.229,38.637L13.229,31.368C12.982,31.069 12.93,30.655 13.095,30.305C13.26,29.954 13.613,29.731 14,29.731L16,29.731L16,10.269ZM17,9.269L17,30.731L14,30.731L20,38L26,30.731L23,30.731L23,9.269L26,9.269L20,2L14,9.269L17,9.269Z"/>
    </g>
</svg>
