<?xml version="1.0" encoding="UTF-8" standalone="no"?>
<!DOCTYPE svg PUBLIC "-//W3C//DTD SVG 1.1//EN" "http://www.w3.org/Graphics/SVG/1.1/DTD/svg11.dtd">
<svg width="100%" height="100%" viewBox="0 0 40 40" version="1.1" xmlns="http://www.w3.org/2000/svg" xmlns:xlink="http://www.w3.org/1999/xlink" xml:space="preserve" xmlns:serif="http://www.serif.com/" style="fill-rule:evenodd;clip-rule:evenodd;stroke-linejoin:round;stroke-miterlimit:2;">
    <rect id="pagination" x="-0" y="-0" width="40" height="40" style="fill:none;"/>
    <g id="pagination1" serif:id="pagination">
        <rect x="-0" y="0" width="16" height="16" style="fill:#00d0c6;"/>
        <rect x="24" y="24" width="16" height="16" style="fill:#00d0c6;"/>
        <rect x="7.218" y="6.901" width="26" height="26" style="fill:#b17fbe;"/>
        <path d="M34.218,6.901L34.218,32.901C34.218,33.453 33.77,33.901 33.218,33.901L7.218,33.901C6.665,33.901 6.218,33.453 6.218,32.901L6.218,6.901C6.218,6.348 6.665,5.901 7.218,5.901L33.218,5.901C33.77,5.901 34.218,6.348 34.218,6.901ZM33.218,6.901L7.218,6.901L7.218,32.901L33.218,32.901L33.218,6.901Z"/>
    </g>
</svg>
