<?xml version="1.0" encoding="UTF-8" standalone="no"?>
<!DOCTYPE svg PUBLIC "-//W3C//DTD SVG 1.1//EN" "http://www.w3.org/Graphics/SVG/1.1/DTD/svg11.dtd">
<svg width="100%" height="100%" viewBox="0 0 40 40" version="1.1" xmlns="http://www.w3.org/2000/svg" xmlns:xlink="http://www.w3.org/1999/xlink" xml:space="preserve" xmlns:serif="http://www.serif.com/" style="fill-rule:evenodd;clip-rule:evenodd;stroke-linejoin:round;stroke-miterlimit:2;">
    <rect id="settings" x="0" y="0" width="40" height="40" style="fill:none;"/>
    <g id="settings1" serif:id="settings">
        <path d="M23.04,1.751C21.027,1.416 18.973,1.416 16.96,1.751L17.184,5.285C15.955,5.52 14.761,5.908 13.629,6.44L11.733,3.45C9.908,4.362 8.246,5.569 6.814,7.023L9.072,9.75C8.216,10.663 7.478,11.679 6.875,12.775L3.584,11.47C2.643,13.28 2.008,15.234 1.705,17.252L5.135,18.131C4.979,19.372 4.979,20.628 5.135,21.869L1.705,22.748C2.008,24.766 2.643,26.72 3.584,28.53L6.875,27.225C7.478,28.321 8.216,29.337 9.072,30.25L6.814,32.977C8.246,34.431 9.908,35.638 11.733,36.55L13.629,33.56C14.761,34.092 15.955,34.48 17.184,34.715L16.96,38.249C18.973,38.584 21.027,38.584 23.04,38.249L22.816,34.715C24.045,34.48 25.239,34.092 26.371,33.56L28.267,36.55C30.092,35.638 31.754,34.431 33.186,32.977L30.928,30.25C31.784,29.337 32.522,28.321 33.125,27.225L36.416,28.53C37.357,26.72 37.992,24.766 38.295,22.748L34.865,21.869C35.021,20.628 35.021,19.372 34.865,18.131L38.295,17.252C37.992,15.234 37.357,13.28 36.416,11.47L33.125,12.775C32.522,11.679 31.784,10.663 30.928,9.75L33.186,7.023C31.754,5.569 30.092,4.362 28.267,3.45L26.371,6.44C25.239,5.908 24.045,5.52 22.816,5.285L23.04,1.751ZM20,14.615C22.972,14.615 25.385,17.028 25.385,20C25.385,22.972 22.972,25.385 20,25.385C17.028,25.385 14.615,22.972 14.615,20C14.615,17.028 17.028,14.615 20,14.615Z" style="fill:#00d0c6;"/>
        <path d="M23.689,1.793C23.689,1.793 23.5,4.764 23.5,4.764C24.398,4.971 25.276,5.256 26.123,5.617L27.718,3.102C27.896,2.82 28.259,2.719 28.557,2.868C30.447,3.812 32.167,5.062 33.649,6.568C33.883,6.805 33.899,7.181 33.686,7.438C33.686,7.438 31.787,9.732 31.787,9.731C32.392,10.426 32.935,11.173 33.408,11.963L36.176,10.865C36.486,10.743 36.839,10.874 36.993,11.17C37.967,13.044 38.624,15.067 38.938,17.156C38.987,17.485 38.779,17.799 38.456,17.882C38.456,17.882 35.572,18.621 35.571,18.621C35.653,19.538 35.653,20.462 35.571,21.379L38.456,22.118C38.779,22.201 38.987,22.515 38.938,22.844C38.624,24.933 37.967,26.956 36.993,28.83C36.839,29.126 36.486,29.257 36.176,29.135C36.176,29.135 33.408,28.037 33.408,28.037C32.935,28.827 32.392,29.574 31.787,30.268L33.686,32.562C33.899,32.819 33.883,33.195 33.649,33.432C32.167,34.938 30.447,36.188 28.557,37.132C28.259,37.281 27.896,37.18 27.718,36.898C27.718,36.898 26.124,34.383 26.124,34.383C25.276,34.744 24.398,35.029 23.5,35.236L23.689,38.207C23.71,38.54 23.476,38.835 23.147,38.89C21.063,39.237 18.937,39.237 16.853,38.89C16.524,38.835 16.29,38.54 16.311,38.207C16.311,38.207 16.5,35.236 16.5,35.236C15.602,35.029 14.724,34.744 13.877,34.383L12.282,36.898C12.104,37.18 11.741,37.281 11.443,37.132C9.553,36.188 7.833,34.938 6.351,33.432C6.117,33.195 6.101,32.819 6.314,32.562C6.314,32.562 8.213,30.268 8.213,30.269C7.608,29.574 7.065,28.827 6.592,28.037L3.824,29.135C3.514,29.257 3.161,29.126 3.007,28.83C2.033,26.956 1.376,24.933 1.062,22.844C1.013,22.515 1.221,22.201 1.544,22.118C1.544,22.118 4.428,21.379 4.429,21.379C4.347,20.462 4.347,19.538 4.429,18.621L1.544,17.882C1.221,17.799 1.013,17.485 1.062,17.156C1.376,15.067 2.033,13.044 3.007,11.17C3.161,10.874 3.514,10.743 3.824,10.865C3.824,10.865 6.592,11.963 6.592,11.963C7.065,11.173 7.608,10.426 8.213,9.732L6.314,7.438C6.101,7.181 6.117,6.805 6.351,6.568C7.833,5.062 9.553,3.812 11.443,2.868C11.741,2.719 12.104,2.82 12.282,3.102C12.282,3.102 13.876,5.617 13.876,5.617C14.724,5.256 15.602,4.971 16.5,4.764L16.311,1.793C16.29,1.46 16.524,1.165 16.853,1.11C18.937,0.763 21.063,0.763 23.147,1.11C23.476,1.165 23.71,1.46 23.689,1.793ZM23.04,1.751C21.027,1.416 18.973,1.416 16.96,1.751L17.184,5.285C15.955,5.52 14.761,5.908 13.629,6.44L11.733,3.45C9.908,4.362 8.246,5.569 6.814,7.023L9.072,9.75C8.216,10.663 7.478,11.679 6.875,12.775L3.584,11.47C2.643,13.28 2.008,15.234 1.705,17.252L5.135,18.131C4.979,19.372 4.979,20.628 5.135,21.869L1.705,22.748C2.008,24.766 2.643,26.72 3.584,28.53L6.875,27.225C7.478,28.321 8.216,29.337 9.072,30.25L6.814,32.977C8.246,34.431 9.908,35.638 11.733,36.55L13.629,33.56C14.761,34.092 15.955,34.48 17.184,34.715L16.96,38.249C18.973,38.584 21.027,38.584 23.04,38.249L22.816,34.715C24.045,34.48 25.239,34.092 26.371,33.56L28.267,36.55C30.092,35.638 31.754,34.431 33.186,32.977L30.928,30.25C31.784,29.337 32.522,28.321 33.125,27.225L36.416,28.53C37.357,26.72 37.992,24.766 38.295,22.748L34.865,21.869C35.021,20.628 35.021,19.372 34.865,18.131L38.295,17.252C37.992,15.234 37.357,13.28 36.416,11.47L33.125,12.775C32.522,11.679 31.784,10.663 30.928,9.75L33.186,7.023C31.754,5.569 30.092,4.362 28.267,3.45L26.371,6.44C25.239,5.908 24.045,5.52 22.816,5.285L23.04,1.751ZM20,14.615C22.972,14.615 25.385,17.028 25.385,20C25.385,22.972 22.972,25.385 20,25.385C17.028,25.385 14.615,22.972 14.615,20C14.615,17.028 17.028,14.615 20,14.615ZM20,15.265C17.387,15.265 15.265,17.387 15.265,20C15.265,22.613 17.387,24.735 20,24.735C22.613,24.735 24.735,22.613 24.735,20C24.735,17.387 22.613,15.265 20,15.265Z"/>
    </g>
</svg>
