<?xml version="1.0" encoding="UTF-8" standalone="no"?>
<!DOCTYPE svg PUBLIC "-//W3C//DTD SVG 1.1//EN">
<svg width="100%" height="100%" viewBox="0 0 32 32" version="1.1" xmlns="http://www.w3.org/2000/svg" xmlns:xlink="http://www.w3.org/1999/xlink" xml:space="preserve" xmlns:serif="http://www.serif.com/" style="fill-rule:evenodd;clip-rule:evenodd;stroke-linecap:round;">
    <g transform="matrix(1,0,0,1,-36,-202)">
        <g transform="matrix(0.888889,0,0,0.909583,112.889,-38.8749)">
            <rect id="to-bottom"  x="-86.5" y="264.819" width="36" height="35.181" style="fill:none;"/>
            <clipPath id="_clip1">
                <rect id="to-bottom1"  x="-86.5" y="264.819" width="36" height="35.181"/>
            </clipPath>
            <g clip-path="url(#_clip1)">
                <g transform="matrix(1.08,0,0,1.00779,-103.42,74.2555)">
                    <rect x="24" y="200" width="25" height="24" style="fill:rgb(100,0,125);"/>
                </g>
                <g transform="matrix(1.94712,0,0,1.90282,-165.769,-134.223)">
                    <rect x="41" y="210" width="13" height="13" style="fill:rgb(153,153,153);"/>
                </g>
                <g transform="matrix(1.94712,0,0,1.90282,-165.769,-134.223)">
                    <rect x="41" y="210" width="13" height="13" style="fill:none;stroke:rgb(153,153,153);stroke-width:0.58px;"/>
                </g>
                <g transform="matrix(1.035,0,0,0.99162,-101.215,77.8771)">
                    <rect x="24" y="200" width="25" height="24" style="fill:none;stroke:rgb(100,0,125);stroke-opacity:0.42;stroke-width:1.1px;"/>
                </g>
                <g transform="matrix(1.4,0,0,-1.4,39.325,669.867)">
                    <g transform="matrix(1.125,0,0,1.0994,-86.5,43.3369)">
                        <path d="M17,209.456L12,205.456L7,209.456" style="fill:none;stroke:white;stroke-width:1.43px;"/>
                    </g>
                    <g transform="matrix(1.125,0,0,1.0994,-86.5,42.7392)">
                        <path d="M17,204L7,204" style="fill:none;stroke:white;stroke-width:1.43px;"/>
                    </g>
                </g>
            </g>
        </g>
    </g>
</svg>
