<?xml version="1.0" encoding="UTF-8" standalone="no"?>
<!DOCTYPE svg PUBLIC "-//W3C//DTD SVG 1.1//EN" "http://www.w3.org/Graphics/SVG/1.1/DTD/svg11.dtd">
<svg width="100%" height="100%" viewBox="0 0 33 33" version="1.1" xmlns="http://www.w3.org/2000/svg" xmlns:xlink="http://www.w3.org/1999/xlink" xml:space="preserve" xmlns:serif="http://www.serif.com/" style="fill-rule:evenodd;clip-rule:evenodd;stroke-linecap:round;">
    <g transform="matrix(1,0,0,1,-184,-237)">
        <g transform="matrix(0.888889,0,0,0.909583,261.505,-3.78286)">
            <rect id="to-bottom" serif:id="to bottom" x="-86.5" y="264.819" width="36" height="35.181" style="fill:none;"/>
            <clipPath id="_clip1">
                <rect id="to-bottom1" serif:id="to bottom" x="-86.5" y="264.819" width="36" height="35.181"/>
            </clipPath>
            <g clip-path="url(#_clip1)">
                <g transform="matrix(2.64375,0,0,-3.02336,-100.506,917.321)">
                    <path d="M17,209.456L12,205.456L7,209.456" style="fill:none;stroke:black;stroke-width:1.17px;"/>
                </g>
                <g transform="matrix(1.125,0,0,-1.0994,-297.189,531.425)">
                    <rect x="191.529" y="228" width="23" height="4" style="fill:rgb(153,153,153);"/>
                    <rect x="191.529" y="228" width="23" height="4"/>
                </g>
                <g transform="matrix(1.125,0,0,-1.0994,-297.189,523.729)">
                    <rect x="191.529" y="228" width="23" height="4" style="fill:rgb(153,153,153);"/>
                    <rect x="191.529" y="228" width="23" height="4"/>
                </g>
            </g>
        </g>
    </g>
</svg>
