<?xml version="1.0" encoding="UTF-8" standalone="no"?>
<!DOCTYPE svg PUBLIC "-//W3C//DTD SVG 1.1//EN" "http://www.w3.org/Graphics/SVG/1.1/DTD/svg11.dtd">
<svg width="100%" height="100%" viewBox="0 0 33 32" version="1.1" xmlns="http://www.w3.org/2000/svg" xmlns:xlink="http://www.w3.org/1999/xlink" xml:space="preserve" xmlns:serif="http://www.serif.com/" style="fill-rule:evenodd;clip-rule:evenodd;stroke-linecap:round;">
    <g transform="matrix(1,0,0,1,-184,-202)">
        <g transform="matrix(0.888889,0,0,0.909583,261.418,-38.8749)">
            <rect id="to-bottom" serif:id="to bottom" x="-86.5" y="264.819" width="36" height="35.181" style="fill:none;"/>
            <clipPath id="_clip1">
                <rect id="to-bottom1" serif:id="to bottom" x="-86.5" y="264.819" width="36" height="35.181"/>
            </clipPath>
            <g clip-path="url(#_clip1)">
                <g transform="matrix(1.26,0,0,1.19102,-112.24,33.2111)">
                    <rect x="24" y="200" width="25" height="24" style="fill:rgb(177,127,190);"/>
                </g>
                <g transform="matrix(2.42308,0,0,2.19881,-185.846,-196.931)">
                    <rect x="41" y="210" width="13" height="13" style="fill:rgb(153,153,153);fill-opacity:0.8;"/>
                </g>
                <g transform="matrix(2.35,0,0,-2.75,105.019,1031.28)">
                    <g transform="matrix(1.125,0,0,1.0994,-86.5,43.3369)">
                        <path d="M17,209.456L12,205.456L7,209.456" style="fill:none;stroke:black;stroke-width:1.17px;"/>
                    </g>
                    <g transform="matrix(1.125,0,0,1.0994,-86.5,42.7392)">
                        <path d="M17,204L7,204" style="fill:none;stroke:black;stroke-width:1.17px;"/>
                    </g>
                </g>
            </g>
        </g>
    </g>
</svg>
