<?xml version="1.0" encoding="UTF-8" standalone="no"?>
<!DOCTYPE svg PUBLIC "-//W3C//DTD SVG 1.1//EN" "http://www.w3.org/Graphics/SVG/1.1/DTD/svg11.dtd">
<svg width="100%" height="100%" viewBox="0 0 32 32" version="1.1" xmlns="http://www.w3.org/2000/svg" xmlns:xlink="http://www.w3.org/1999/xlink" xml:space="preserve" xmlns:serif="http://www.serif.com/" style="fill-rule:evenodd;clip-rule:evenodd;stroke-linecap:round;">
    <g transform="matrix(1,0,0,1,0,-202)">
        <g transform="matrix(0.888889,0,0,0.909583,76.8889,-38.8749)">
            <rect id="to-top" x="-86.5" y="264.819" width="36" height="35.181" style="fill:none;"/>
            <clipPath id="_clip1">
                <rect id="to-top1" serif:id="to-top" x="-86.5" y="264.819" width="36" height="35.181"/>
            </clipPath>
            <g clip-path="url(#_clip1)">
                <g transform="matrix(1.94712,0,0,1.86053,-156.207,-114.899)">
                    <rect x="41" y="210" width="13" height="13" style="fill:rgb(153,153,153);"/>
                </g>
                <g transform="matrix(1.1475,0,0,1.0994,-114.04,44.938)">
                    <rect x="24" y="200" width="25" height="24" style="fill:rgb(100,0,125);"/>
                </g>
                <g transform="matrix(1.86058,0,0,1.81825,-151.534,-105.469)">
                    <rect x="41" y="210" width="13" height="13" style="fill:none;stroke:rgb(153,153,153);stroke-opacity:0.5;stroke-width:0.6px;"/>
                </g>
                <g transform="matrix(1.4,0,0,1.36667,29.2,-95.7077)">
                    <g transform="matrix(1.125,0,0,1.0994,-86.5,43.3369)">
                        <path d="M17,209.456L12,205.456L7,209.456" style="fill:none;stroke:white;stroke-width:1.45px;"/>
                    </g>
                    <g transform="matrix(1.125,0,0,1.0994,-86.5,42.7392)">
                        <path d="M17,204L7,204" style="fill:none;stroke:white;stroke-width:1.45px;"/>
                    </g>
                </g>
            </g>
        </g>
    </g>
</svg>
