<?xml version="1.0" encoding="UTF-8" standalone="no"?>
<!DOCTYPE svg PUBLIC "-//W3C//DTD SVG 1.1//EN" "http://www.w3.org/Graphics/SVG/1.1/DTD/svg11.dtd">
<svg width="100%" height="100%" viewBox="0 0 41 40" version="1.1" xmlns="http://www.w3.org/2000/svg" xmlns:xlink="http://www.w3.org/1999/xlink" xml:space="preserve" xmlns:serif="http://www.serif.com/" style="fill-rule:evenodd;clip-rule:evenodd;stroke-linejoin:round;stroke-miterlimit:2;">
    <rect id="widget-move" x="0.529" y="0" width="40" height="40" style="fill:none;"/>
    <g id="widget-move1" serif:id="widget-move">
        <path d="M9.799,23L9.799,26L2.529,20L9.799,14L9.799,17L31.26,17L31.26,14L38.529,20L31.26,26L31.26,23L9.799,23Z" style="fill:#b17fbe;"/>
        <path d="M10.799,24L10.799,26C10.799,26.387 10.575,26.74 10.225,26.905C9.875,27.07 9.461,27.018 9.162,26.771L1.893,20.771C1.663,20.581 1.529,20.298 1.529,20C1.529,19.702 1.663,19.419 1.893,19.229L9.162,13.229C9.461,12.982 9.875,12.93 10.225,13.095C10.575,13.26 10.799,13.613 10.799,14L10.799,16C10.799,16 30.26,16 30.26,16L30.26,14C30.26,13.613 30.484,13.26 30.834,13.095C31.184,12.93 31.598,12.982 31.897,13.229L39.166,19.229C39.396,19.419 39.529,19.702 39.529,20C39.529,20.298 39.396,20.581 39.166,20.771L31.897,26.771C31.598,27.018 31.184,27.07 30.834,26.905C30.484,26.74 30.26,26.387 30.26,26L30.26,24L10.799,24ZM9.799,23L31.26,23L31.26,26L38.529,20L31.26,14L31.26,17L9.799,17L9.799,14L2.529,20L9.799,26L9.799,23Z"/>
        <path d="M17.529,9.269L14.529,9.269L20.529,2L26.529,9.269L23.529,9.269L23.529,30.731L26.529,30.731L20.529,38L14.529,30.731L17.529,30.731L17.529,9.269Z" style="fill:#b17fbe;"/>
        <path d="M16.53,10.269L14.529,10.269C14.142,10.269 13.79,10.046 13.625,9.695C13.46,9.345 13.512,8.931 13.758,8.632L19.758,1.363C19.948,1.133 20.231,1 20.529,1C20.828,1 21.111,1.133 21.301,1.363L27.301,8.632C27.547,8.931 27.599,9.345 27.434,9.695C27.269,10.046 26.917,10.269 26.529,10.269L24.529,10.269C24.529,10.269 24.529,29.731 24.529,29.731L26.529,29.731C26.917,29.731 27.269,29.954 27.434,30.305C27.599,30.655 27.547,31.069 27.301,31.368L21.301,38.637C21.111,38.867 20.828,39 20.529,39C20.231,39 19.948,38.867 19.758,38.637L13.758,31.368C13.512,31.069 13.46,30.655 13.625,30.305C13.79,29.954 14.142,29.731 14.529,29.731L16.529,29.731L16.53,10.269ZM17.529,9.269L17.529,30.731L14.529,30.731L20.529,38L26.529,30.731L23.529,30.731L23.529,9.269L26.529,9.269L20.529,2L14.529,9.269L17.529,9.269Z"/>
    </g>
</svg>
